<svg width="15" height="15" viewBox="0 0 15 15" fill="none" xmlns="http://www.w3.org/2000/svg">
    <path d="M5.875 14.3281C6.28906 14.3281 6.60156 14.1562 6.82812 13.8203L14.1719 2.36719C14.3359 2.11719 14.3984 1.89844 14.3984 1.6875C14.3984 1.14844 14.0234 0.773438 13.4766 0.773438C13.0938 0.773438 12.8672 0.90625 12.6328 1.27344L5.84375 12.0547L2.34375 7.5625C2.11719 7.25781 1.88281 7.13281 1.53906 7.13281C0.992188 7.13281 0.59375 7.52344 0.59375 8.0625C0.59375 8.29688 0.679688 8.52344 0.875 8.76562L4.92188 13.8281C5.19531 14.1641 5.48438 14.3281 5.875 14.3281Z" fill="#7265FD"/>
</svg>
